<?xml version="1.0" standalone="no"?><!DOCTYPE svg PUBLIC "-//W3C//DTD SVG 1.1//EN" "http://www.w3.org/Graphics/SVG/1.1/DTD/svg11.dtd"><svg t="1686060867102" class="icon" viewBox="0 0 1024 1024" version="1.1" xmlns="http://www.w3.org/2000/svg" p-id="2680" xmlns:xlink="http://www.w3.org/1999/xlink" width="200" height="200"><path d="M975.943 511.999L511.977 975.962 48.014 512 511.977 48.036z" fill="#FFC252" p-id="2681"></path><path d="M880 144.075L112.027 912.041l-48.002-48.002L831.993 96.07z" fill="#FF5F5C" p-id="2682"></path><path d="M927.99 192.075L160.024 960.04 112.02 912.04 879.987 144.07z" fill="#E83C3C" p-id="2683"></path><path d="M939.295 164.669l-22.628 22.63-79.986-79.986 22.628-22.627z m-495.95 438.695L123.403 923.31l-22.628-22.628 319.944-319.944z" fill="#34303D" p-id="2684"></path><path d="M118.63 1023.996H73.382L0.006 950.62v-45.247l372.686-372.686 22.624 22.624-363.31 363.31v18.752l54.624 54.623h18.752l363.31-363.31 22.623 22.624z m780.663-876.653L603.335 443.301l-22.628-22.625 295.958-295.959z" fill="#34303D" p-id="2685"></path><path d="M651.315 491.311l-22.624-22.624L930.353 167.01 979.28 44.722 856.977 93.633 555.315 395.312l-22.624-22.624L836.69 68.69a16.156 16.156 0 0 1 5.376-3.552l160-64a16.02 16.02 0 0 1 20.8 20.816l-64 159.999a16.09 16.09 0 0 1-3.552 5.36L651.315 491.31z m-479.928 457.37l-22.624 22.627-95.999-95.995 22.628-22.626z" fill="#34303D" p-id="2686"></path><path d="M911.979 911.987l-48.004 48.003L96.008 192.023l48.003-48.004z" fill="#ABF1FC" p-id="2687"></path><path d="M959.979 863.977l-48.004 48.004-767.968-767.968 48.004-48.004z" fill="#57DCF2" p-id="2688"></path><path d="M187.297 107.333l-79.985 79.986-22.626-22.628 79.985-79.983z" fill="#34303D" p-id="2689"></path><path d="M923.307 900.675L900.68 923.3l-767.98-767.978 22.628-22.628z" fill="#34303D" p-id="2690"></path><path d="M950.625 1023.996h-45.248L100.662 219.281l22.624-22.624 795.339 795.34h18.752L992 937.372V918.62L196.74 123.36l22.624-22.624L1024 905.373v45.247z" fill="#34303D" p-id="2691"></path><path d="M100.662 219.28l-31.968-31.967a16.252 16.252 0 0 1-3.552-5.36l-64-160A16.026 16.026 0 0 1 4.694 4.69C9.206 0.162 16.006-1.214 21.958 1.138l160 64c2 0.8 3.84 2.016 5.36 3.552l32.047 32.047-22.624 22.624-29.728-29.728L44.726 44.722l48.912 122.287 29.648 29.648-22.624 22.624zM971.309 875.32l-95.994 95.993-22.626-22.626 95.994-95.995zM496.003 160h32v32h-32z m0 671.996h32v32h-32zM160.005 496h32v32h-32z m671.996 0h32v32h-32z" fill="#34303D" p-id="2692"></path></svg>