<?xml version="1.0" standalone="no"?><!DOCTYPE svg PUBLIC "-//W3C//DTD SVG 1.1//EN" "http://www.w3.org/Graphics/SVG/1.1/DTD/svg11.dtd"><svg t="1685591779041" class="icon" viewBox="0 0 1024 1024" version="1.1" xmlns="http://www.w3.org/2000/svg" p-id="1942" xmlns:xlink="http://www.w3.org/1999/xlink" width="200" height="200"><path d="M584.207 645.213l44.83-44.83 59.396 59.396-44.83 44.83z" fill="#2D3647" p-id="1943"></path><path d="M643.6 721.5l-76.4-76.4 61.8-61.8 76.4 76.4-61.8 61.8z m-42.4-76.3l42.4 42.4 27.8-27.8-42.4-42.5-27.8 27.9z" fill="#E04B87" p-id="1944"></path><path d="M867.7 883.9c-20.6 20.6-54.3 20.6-75 0L655.5 746.6c-20.6-20.6-20.6-54.3 0-75 20.6-20.6 54.3-20.6 75 0l137.3 137.3c20.5 20.6 20.5 54.3-0.1 75z" fill="#EDBFAB" p-id="1945"></path><path d="M830.2 911.8c-16.8 0-33.5-6.4-46.3-19.2L646.6 755.4c-12.3-12.3-19.1-28.8-19.1-46.3 0-17.5 6.8-34 19.1-46.3 25.5-25.5 67.1-25.5 92.6 0l137.3 137.3c25.5 25.5 25.5 67.1 0 92.6-12.7 12.8-29.5 19.1-46.3 19.1zM692.9 668.6c-10.4 0-20.7 3.9-28.6 11.8-7.6 7.6-11.8 17.8-11.8 28.6s4.2 21 11.8 28.6L801.6 875c15.8 15.8 41.5 15.8 57.3 0s15.8-41.5 0-57.3L721.6 680.4c-7.9-7.8-18.3-11.8-28.7-11.8z" fill="#E04B87" p-id="1946"></path><path d="M421 429m-295 0a295 295 0 1 0 590 0 295 295 0 1 0-590 0Z" fill="#2D3647" p-id="1947"></path><path d="M421 736.5c-82.1 0-159.4-32-217.4-90.1-58.1-58.1-90.1-135.3-90.1-217.4s32-159.4 90.1-217.4c58.1-58.1 135.3-90.1 217.4-90.1s159.4 32 217.4 90.1c58.1 58.1 90.1 135.3 90.1 217.4s-32 159.4-90.1 217.4-135.3 90.1-217.4 90.1z m0-590c-155.8 0-282.5 126.7-282.5 282.5S265.2 711.5 421 711.5 703.5 584.8 703.5 429 576.8 146.5 421 146.5z" fill="#E04B87" p-id="1948"></path><path d="M421 429m-235.9 0a235.9 235.9 0 1 0 471.8 0 235.9 235.9 0 1 0-471.8 0Z" fill="#EDBFAB" p-id="1949"></path><path d="M203.6 568.4l397.6-315.1s73.6 120.6 70.3 193.2-35.2 165.9-104.2 198.6-129.3 48.7-201.9 30.3-161.8-107-161.8-107z" fill="#2D3647" p-id="1950"></path></svg>